<svg width="132" height="132" viewBox="0 0 132 132" fill="none" xmlns="http://www.w3.org/2000/svg">
<path d="M65.6818 131.682C101.92 131.682 131.273 102.33 131.273 66.0909C131.273 29.8523 101.92 0.5 65.6818 0.5C29.4432 0.5 0.0909091 29.8523 0.0909091 66.0909C0.0909091 102.33 29.4432 131.682 65.6818 131.682ZM65.6818 121.386C35.1364 121.386 10.4205 96.6364 10.4205 66.0909C10.4205 35.5455 35.1364 10.7955 65.6818 10.7955C96.2273 10.7955 120.977 35.5455 120.977 66.0909C120.977 96.6364 96.2273 121.386 65.6818 121.386ZM41.375 101H58.25V79.3182H69.7045C85.6932 79.3182 95.6818 69.8409 95.6818 55.3523C95.6818 41 85.8977 31.1818 70.2159 31.1818H41.375V101ZM58.25 66.0227V44.7841H66.5682C74.1364 44.7841 78.1932 48.875 78.1932 55.3523C78.1932 61.7955 74.1364 66.0227 66.5682 66.0227H58.25Z" fill="black" />
  <style>
    path {
      fill: black;
    }
    @media (prefers-color-scheme: dark) {
      path {
        fill: white;
      }
    }
  </style>
</svg>
